<svg width="25" height="24" viewBox="0 0 25 24" fill="none" xmlns="http://www.w3.org/2000/svg">
<path fill-rule="evenodd" clip-rule="evenodd" d="M7.3335 6C7.3335 3.23858 9.57207 1 12.3335 1C15.0949 1 17.3335 3.23858 17.3335 6C17.3335 8.76142 15.0949 11 12.3335 11C9.57207 11 7.3335 8.76142 7.3335 6ZM12.3335 3C10.6766 3 9.3335 4.34315 9.3335 6C9.3335 7.65685 10.6766 9 12.3335 9C13.9904 9 15.3335 7.65685 15.3335 6C15.3335 4.34315 13.9904 3 12.3335 3Z" fill="#292929"/>
<path fill-rule="evenodd" clip-rule="evenodd" d="M2.3335 22C2.3335 16.4772 6.81065 12 12.3335 12C17.8563 12 22.3335 16.4772 22.3335 22V23H2.3335V22ZM4.39539 21H20.2716C19.7795 17.0537 16.4131 14 12.3335 14C8.25388 14 4.88749 17.0537 4.39539 21Z" fill="#292929"/>
</svg>
