<svg width="42" height="42" viewBox="0 0 42 42" fill="none" xmlns="http://www.w3.org/2000/svg">
<g style="mix-blend-mode:overlay">
<path d="M15.75 13.2751L21 18.5251L26.25 13.2751L28.7249 15.75L23.4749 21L28.7249 26.25L26.25 28.7249L21 23.4749L15.75 28.7249L13.2751 26.25L18.5251 21L13.2751 15.75L15.75 13.2751Z" fill="white"/>
<path fill-rule="evenodd" clip-rule="evenodd" d="M1.75 21C1.75 10.3685 10.3685 1.75 21 1.75C31.6315 1.75 40.25 10.3685 40.25 21C40.25 31.6315 31.6315 40.25 21 40.25C10.3685 40.25 1.75 31.6315 1.75 21ZM21 5.25C12.3015 5.25 5.25 12.3015 5.25 21C5.25 29.6985 12.3015 36.75 21 36.75C29.6985 36.75 36.75 29.6985 36.75 21C36.75 12.3015 29.6985 5.25 21 5.25Z" fill="white"/>
</g>
</svg>
